<?xml version="1.0" encoding="utf-8"?>
<!-- Generator: Adobe Illustrator 24.0.1, SVG Export Plug-In . SVG Version: 6.00 Build 0)  -->
<svg version="1.1" id="Capa_1" xmlns="http://www.w3.org/2000/svg" xmlns:xlink="http://www.w3.org/1999/xlink" x="0px" y="0px"
	 viewBox="0 0 800 800" style="enable-background:new 0 0 800 800;" xml:space="preserve">
<g>
	<path d="M261.7,680.5c29.6,44,89.6,139.5,154.7,115.8c72.7-27.1,130.2-124.3,171.6-185.2c23.7-34.7,108.2-153,56.6-194.5
		c-2.5-2.5-6.8-3.4-10.1-2.5c-34.7-16.9-88.8-6.8-126-6.8c-6.8,0-13.5,0-20.3,0c0.8-124.3,41.4-259.6,5.9-380.5
		c-2.5-7.6-7.6-11-12.7-11.8c0-0.8-0.8-1.7-0.8-2.5c-11-18.6-53.3-11-71.9-11c-32.1,0-65.9-0.8-97.2,5.1
		c-7.6,1.7-11.8,6.8-12.7,12.7c-4.2,3.4-5.9,6.8-5.9,11.8c1.7,127.7,16.9,252.8,9.3,380.5c-40.6,0-81.2-1.7-121.7-7.6
		c-5.1-0.8-9.3,0.8-12.7,2.5c-10.1-8.5-31.3,0.8-28.7,18.6C151.8,514.7,212.7,606.9,261.7,680.5z"/>
</g>
</svg>
